<svg width="166" height="91" viewBox="0 0 166 91" fill="none" xmlns="http://www.w3.org/2000/svg">
<g filter="url(#filter0_d_1_233)">
<g clip-path="url(#clip0_1_233)">
<rect width="152.78" height="77.3254" rx="3.74155" transform="matrix(1 0 3.50255e-05 1 6.90933 6.54907)" fill="white"/>
<path d="M19.3306 20.522L19.3306 20.9546H17.2061L17.206 20.522H19.3306ZM17.3134 16.9424L17.3135 20.9546H16.7817L16.7816 16.9424H17.3134ZM19.0495 18.6674L19.0495 19.1001H17.206L17.206 18.6674H19.0495ZM19.3029 16.9424L19.3029 17.3778H17.2059L17.2059 16.9424H19.3029ZM21.0642 20.5909C21.1855 20.5909 21.2975 20.5661 21.4004 20.5165C21.5033 20.4668 21.5878 20.3989 21.6539 20.3125C21.72 20.2244 21.7577 20.1242 21.7669 20.0122H22.2518C22.2427 20.1885 22.183 20.353 22.0728 20.5054C21.9644 20.6561 21.822 20.7782 21.6456 20.8719C21.4693 20.9638 21.2755 21.0097 21.0642 21.0097C20.8401 21.0097 20.6445 20.9702 20.4773 20.8912C20.3119 20.8122 20.1742 20.7038 20.0639 20.5661C19.9555 20.4283 19.8738 20.2703 19.8187 20.0921C19.7654 19.9121 19.7387 19.7219 19.7387 19.5217L19.7387 19.4059C19.7387 19.2057 19.7653 19.0165 19.8186 18.8383C19.8737 18.6583 19.9555 18.4994 20.0638 18.3616C20.1741 18.2238 20.3118 18.1154 20.4772 18.0364C20.6443 17.9574 20.84 17.9179 21.0641 17.9179C21.2974 17.9179 21.5013 17.9657 21.6759 18.0612C21.8504 18.1549 21.9872 18.2835 22.0865 18.447C22.1875 18.6087 22.2426 18.7924 22.2518 18.9981H21.7668C21.7576 18.875 21.7227 18.7639 21.6621 18.6647C21.6033 18.5655 21.5225 18.4865 21.4196 18.4277C21.3186 18.3671 21.2001 18.3368 21.0641 18.3368C20.908 18.3368 20.7766 18.368 20.6701 18.4305C20.5654 18.4911 20.4818 18.5738 20.4193 18.6785C20.3587 18.7813 20.3146 18.8962 20.2871 19.0229C20.2614 19.1478 20.2485 19.2755 20.2485 19.4059L20.2485 19.5217C20.2485 19.6521 20.2614 19.7807 20.2871 19.9075C20.3128 20.0342 20.356 20.149 20.4166 20.2519C20.4791 20.3548 20.5627 20.4375 20.6674 20.4999C20.7739 20.5605 20.9062 20.5909 21.0642 20.5909ZM22.7041 19.4969L22.7041 19.4335C22.7041 19.2186 22.7353 19.0192 22.7977 18.8355C22.8602 18.65 22.9502 18.4893 23.0678 18.3533C23.1853 18.2155 23.3277 18.109 23.4949 18.0337C23.6621 17.9565 23.8494 17.9179 24.057 17.9179C24.2664 17.9179 24.4547 17.9565 24.6219 18.0337C24.7909 18.109 24.9342 18.2155 25.0518 18.3533C25.1712 18.4893 25.2622 18.65 25.3246 18.8355C25.3871 19.0192 25.4183 19.2186 25.4183 19.4335L25.4183 19.4969C25.4183 19.7118 25.3871 19.9111 25.3247 20.0948C25.2622 20.2786 25.1713 20.4393 25.0519 20.5771C24.9343 20.713 24.7919 20.8196 24.6248 20.8967C24.4594 20.972 24.2721 21.0097 24.0626 21.0097C23.8532 21.0097 23.6649 20.972 23.4977 20.8967C23.3306 20.8196 23.1873 20.713 23.0679 20.5771C22.9503 20.4393 22.8603 20.2786 22.7978 20.0948C22.7353 19.9111 22.7041 19.7118 22.7041 19.4969ZM23.2139 19.4335L23.2139 19.4969C23.2139 19.6457 23.2313 19.7862 23.2662 19.9185C23.3011 20.0489 23.3535 20.1647 23.4233 20.2657C23.495 20.3667 23.5841 20.4466 23.6906 20.5054C23.7972 20.5624 23.9212 20.5909 24.0626 20.5909C24.2022 20.5909 24.3244 20.5624 24.4291 20.5054C24.5357 20.4466 24.6238 20.3667 24.6936 20.2657C24.7634 20.1647 24.8158 20.0489 24.8507 19.9185C24.8874 19.7862 24.9058 19.6457 24.9058 19.4969L24.9058 19.4335C24.9058 19.2865 24.8874 19.1478 24.8507 19.0174C24.8158 18.8851 24.7625 18.7685 24.6908 18.6674C24.621 18.5646 24.5328 18.4837 24.4263 18.425C24.3216 18.3662 24.1985 18.3368 24.057 18.3368C23.9174 18.3368 23.7943 18.3662 23.6878 18.425C23.5831 18.4837 23.4949 18.5646 23.4233 18.6674C23.3535 18.7685 23.3011 18.8851 23.2662 19.0174C23.2313 19.1478 23.2139 19.2865 23.2139 19.4335ZM26.5787 18.5655L26.5788 20.9546H26.0663L26.0662 17.973H26.5512L26.5787 18.5655ZM26.4741 19.3508L26.2371 19.3426C26.2389 19.1387 26.2655 18.9504 26.317 18.7777C26.3684 18.6032 26.4446 18.4516 26.5457 18.323C26.6467 18.1944 26.7725 18.0952 26.9232 18.0254C27.0738 17.9537 27.2483 17.9179 27.4467 17.9179C27.5863 17.9179 27.7149 17.9381 27.8325 17.9785C27.9501 18.0171 28.052 18.0787 28.1384 18.1632C28.2247 18.2477 28.2918 18.3561 28.3396 18.4883C28.3873 18.6206 28.4112 18.7804 28.4112 18.9678L28.4113 20.9546H27.9015L27.9014 18.9926C27.9014 18.8365 27.8748 18.7115 27.8215 18.6178C27.7701 18.5242 27.6966 18.4562 27.6011 18.4139C27.5055 18.3698 27.3935 18.3478 27.2649 18.3478C27.1142 18.3478 26.9884 18.3744 26.8874 18.4277C26.7863 18.481 26.7055 18.5545 26.6449 18.6482C26.5843 18.7418 26.5402 18.8493 26.5126 18.9706C26.4869 19.09 26.474 19.2167 26.4741 19.3508ZM28.4057 19.0698L28.064 19.1745C28.0659 19.011 28.0925 18.8539 28.1439 18.7033C28.1972 18.5526 28.2734 18.4185 28.3726 18.301C28.4737 18.1834 28.5977 18.0906 28.7446 18.0226C28.8916 17.9528 29.0597 17.9179 29.2489 17.9179C29.4087 17.9179 29.5502 17.9391 29.6732 17.9813C29.7982 18.0236 29.9029 18.0888 29.9874 18.177C30.0737 18.2633 30.139 18.3744 30.1831 18.5104C30.2271 18.6463 30.2492 18.808 30.2492 18.9954L30.2493 20.9546H29.7367L29.7367 18.9899C29.7367 18.8227 29.71 18.6932 29.6567 18.6013C29.6053 18.5076 29.5318 18.4424 29.4363 18.4057C29.3426 18.3671 29.2305 18.3478 29.1001 18.3478C28.988 18.3478 28.8888 18.3671 28.8025 18.4057C28.7162 18.4442 28.6436 18.4975 28.5848 18.5655C28.526 18.6316 28.481 18.7079 28.4498 18.7942C28.4204 18.8805 28.4057 18.9724 28.4057 19.0698ZM31.5419 18.5655L31.542 20.9546H31.0294L31.0293 17.973H31.5143L31.5419 18.5655ZM31.4372 19.3508L31.2002 19.3426C31.2021 19.1387 31.2287 18.9504 31.2801 18.7777C31.3316 18.6032 31.4078 18.4516 31.5088 18.323C31.6099 18.1944 31.7357 18.0952 31.8863 18.0254C32.037 17.9537 32.2115 17.9179 32.4099 17.9179C32.5495 17.9179 32.6781 17.9381 32.7957 17.9785C32.9132 18.0171 33.0152 18.0787 33.1015 18.1632C33.1879 18.2477 33.2549 18.3561 33.3027 18.4883C33.3505 18.6206 33.3744 18.7804 33.3744 18.9678L33.3744 20.9546H32.8647L32.8646 18.9926C32.8646 18.8365 32.8379 18.7115 32.7847 18.6178C32.7332 18.5242 32.6597 18.4562 32.5642 18.4139C32.4687 18.3698 32.3566 18.3478 32.228 18.3478C32.0774 18.3478 31.9516 18.3744 31.8505 18.4277C31.7495 18.481 31.6686 18.5545 31.608 18.6482C31.5474 18.7418 31.5033 18.8493 31.4758 18.9706C31.4501 19.09 31.4372 19.2167 31.4372 19.3508ZM33.3689 19.0698L33.0272 19.1745C33.029 19.011 33.0556 18.8539 33.1071 18.7033C33.1603 18.5526 33.2366 18.4185 33.3358 18.301C33.4368 18.1834 33.5608 18.0906 33.7078 18.0226C33.8547 17.9528 34.0228 17.9179 34.212 17.9179C34.3719 17.9179 34.5133 17.9391 34.6364 17.9813C34.7613 18.0236 34.866 18.0888 34.9505 18.177C35.0369 18.2633 35.1021 18.3744 35.1462 18.5104C35.1903 18.6463 35.2124 18.808 35.2124 18.9954L35.2124 20.9546H34.6999L34.6998 18.9899C34.6998 18.8227 34.6732 18.6932 34.6199 18.6013C34.5685 18.5076 34.495 18.4424 34.3994 18.4057C34.3057 18.3671 34.1937 18.3478 34.0633 18.3478C33.9512 18.3478 33.852 18.3671 33.7657 18.4057C33.6793 18.4442 33.6067 18.4975 33.548 18.5655C33.4892 18.6316 33.4442 18.7079 33.4129 18.7942C33.3836 18.8805 33.3689 18.9724 33.3689 19.0698ZM37.2354 21.0097C37.0278 21.0097 36.8395 20.9748 36.6705 20.905C36.5033 20.8333 36.3591 20.7332 36.2378 20.6046C36.1184 20.476 36.0266 20.3236 35.9622 20.1472C35.8979 19.9708 35.8658 19.778 35.8658 19.5685L35.8658 19.4528C35.8658 19.2103 35.9016 18.9944 35.9732 18.8052C36.0449 18.6142 36.1422 18.4525 36.2653 18.3202C36.3884 18.188 36.528 18.0879 36.6841 18.0199C36.8403 17.9519 37.0019 17.9179 37.1691 17.9179C37.3822 17.9179 37.5659 17.9547 37.7202 18.0281C37.8764 18.1016 38.0041 18.2045 38.1033 18.3368C38.2025 18.4672 38.276 18.6215 38.3237 18.7997C38.3715 18.9761 38.3954 19.169 38.3954 19.3784L38.3954 19.6071H36.1689L36.1689 19.191H37.8856L37.8856 19.1524C37.8783 19.0202 37.8507 18.8916 37.8029 18.7666C37.757 18.6417 37.6835 18.5389 37.5825 18.458C37.4814 18.3772 37.3437 18.3368 37.1691 18.3368C37.0534 18.3368 36.9469 18.3616 36.8495 18.4112C36.7521 18.4589 36.6685 18.5306 36.5987 18.6261C36.5289 18.7216 36.4747 18.8383 36.4362 18.9761C36.3976 19.1139 36.3783 19.2728 36.3783 19.4528L36.3783 19.5685C36.3783 19.71 36.3976 19.8432 36.4362 19.9681C36.4766 20.0912 36.5345 20.1996 36.6098 20.2932C36.687 20.3869 36.7798 20.4604 36.8881 20.5137C36.9984 20.567 37.1233 20.5936 37.2629 20.5936C37.4429 20.5936 37.5954 20.5569 37.7203 20.4834C37.8452 20.4099 37.9545 20.3116 38.0482 20.1885L38.3569 20.4338C38.2926 20.5311 38.2108 20.6239 38.1116 20.7121C38.0124 20.8003 37.8903 20.8719 37.7451 20.927C37.6019 20.9821 37.4319 21.0097 37.2354 21.0097ZM39.5145 18.4415L39.5146 20.9546H39.0048L39.0047 17.973H39.5007L39.5145 18.4415ZM40.4459 17.9565L40.4431 18.4305C40.4009 18.4213 40.3604 18.4158 40.3219 18.4139C40.2851 18.4103 40.2429 18.4084 40.1951 18.4084C40.0775 18.4084 39.9737 18.4268 39.8837 18.4635C39.7937 18.5003 39.7175 18.5517 39.655 18.6178C39.5926 18.684 39.543 18.763 39.5062 18.8548C39.4713 18.9448 39.4484 19.044 39.4373 19.1524L39.2941 19.2351C39.2941 19.0551 39.3115 18.8861 39.3464 18.7281C39.3831 18.5701 39.4392 18.4305 39.5145 18.3092C39.5898 18.1861 39.6853 18.0906 39.801 18.0226C39.9186 17.9528 40.0582 17.9179 40.2199 17.9179C40.2566 17.9179 40.2989 17.9225 40.3467 17.9317C40.3944 17.9391 40.4275 17.9473 40.4459 17.9565ZM42.0693 20.5909C42.1906 20.5909 42.3026 20.5661 42.4055 20.5165C42.5084 20.4668 42.5929 20.3989 42.659 20.3125C42.7251 20.2244 42.7628 20.1242 42.772 20.0122H43.257C43.2478 20.1885 43.1881 20.353 43.0779 20.5054C42.9695 20.6561 42.8271 20.7782 42.6508 20.8719C42.4744 20.9638 42.2806 21.0097 42.0693 21.0097C41.8452 21.0097 41.6496 20.9702 41.4824 20.8912C41.3171 20.8122 41.1793 20.7038 41.069 20.5661C40.9606 20.4283 40.8789 20.2703 40.8238 20.0921C40.7705 19.9121 40.7439 19.7219 40.7438 19.5217L40.7438 19.4059C40.7438 19.2057 40.7705 19.0165 40.8237 18.8383C40.8788 18.6583 40.9606 18.4994 41.069 18.3616C41.1792 18.2238 41.317 18.1154 41.4823 18.0364C41.6495 17.9574 41.8451 17.9179 42.0692 17.9179C42.3025 17.9179 42.5064 17.9657 42.681 18.0612C42.8555 18.1549 42.9924 18.2835 43.0916 18.447C43.1926 18.6087 43.2477 18.7924 43.2569 18.9981H42.7719C42.7628 18.875 42.7278 18.7639 42.6672 18.6647C42.6084 18.5655 42.5276 18.4865 42.4247 18.4277C42.3237 18.3671 42.2052 18.3368 42.0692 18.3368C41.9131 18.3368 41.7817 18.368 41.6752 18.4305C41.5705 18.4911 41.4869 18.5738 41.4244 18.6785C41.3638 18.7813 41.3197 18.8962 41.2922 19.0229C41.2665 19.1478 41.2536 19.2755 41.2536 19.4059L41.2536 19.5217C41.2536 19.6521 41.2665 19.7807 41.2922 19.9075C41.3179 20.0342 41.3611 20.149 41.4217 20.2519C41.4842 20.3548 41.5678 20.4375 41.6725 20.4999C41.7791 20.5605 41.9113 20.5909 42.0693 20.5909ZM45.0815 21.0097C44.8739 21.0097 44.6856 20.9748 44.5166 20.905C44.3495 20.8333 44.2052 20.7332 44.084 20.6046C43.9646 20.476 43.8727 20.3236 43.8084 20.1472C43.7441 19.9708 43.712 19.778 43.712 19.5685L43.7119 19.4528C43.7119 19.2103 43.7478 18.9944 43.8194 18.8052C43.891 18.6142 43.9884 18.4525 44.1115 18.3202C44.2345 18.188 44.3742 18.0879 44.5303 18.0199C44.6865 17.9519 44.8481 17.9179 45.0153 17.9179C45.2284 17.9179 45.4121 17.9547 45.5664 18.0281C45.7226 18.1016 45.8502 18.2045 45.9494 18.3368C46.0487 18.4672 46.1221 18.6215 46.1699 18.7997C46.2177 18.9761 46.2416 19.169 46.2416 19.3784L46.2416 19.6071H44.0151L44.0151 19.191H45.7318L45.7318 19.1524C45.7244 19.0202 45.6969 18.8916 45.6491 18.7666C45.6032 18.6417 45.5297 18.5389 45.4286 18.458C45.3276 18.3772 45.1898 18.3368 45.0153 18.3368C44.8996 18.3368 44.793 18.3616 44.6957 18.4112C44.5983 18.4589 44.5147 18.5306 44.4449 18.6261C44.3751 18.7216 44.3209 18.8383 44.2823 18.9761C44.2438 19.1139 44.2245 19.2728 44.2245 19.4528L44.2245 19.5685C44.2245 19.71 44.2438 19.8432 44.2824 19.9681C44.3228 20.0912 44.3807 20.1996 44.456 20.2932C44.5331 20.3869 44.6259 20.4604 44.7343 20.5137C44.8445 20.567 44.9695 20.5936 45.1091 20.5936C45.2891 20.5936 45.4416 20.5569 45.5665 20.4834C45.6914 20.4099 45.8007 20.3116 45.8944 20.1885L46.203 20.4338C46.1387 20.5311 46.057 20.6239 45.9578 20.7121C45.8586 20.8003 45.7364 20.8719 45.5913 20.927C45.448 20.9821 45.2781 21.0097 45.0815 21.0097ZM49.4581 20.5909C49.5793 20.5909 49.6914 20.5661 49.7942 20.5165C49.8971 20.4668 49.9816 20.3989 50.0477 20.3125C50.1139 20.2244 50.1515 20.1242 50.1607 20.0122H50.6457C50.6365 20.1885 50.5768 20.353 50.4666 20.5054C50.3582 20.6561 50.2159 20.7782 50.0395 20.8719C49.8631 20.9638 49.6693 21.0097 49.4581 21.0097C49.234 21.0097 49.0383 20.9702 48.8711 20.8912C48.7058 20.8122 48.568 20.7038 48.4578 20.5661C48.3494 20.4283 48.2676 20.2703 48.2125 20.0921C48.1592 19.9121 48.1326 19.7219 48.1326 19.5217L48.1326 19.4059C48.1326 19.2057 48.1592 19.0165 48.2125 18.8383C48.2676 18.6583 48.3493 18.4994 48.4577 18.3616C48.5679 18.2238 48.7057 18.1154 48.871 18.0364C49.0382 17.9574 49.2338 17.9179 49.458 17.9179C49.6913 17.9179 49.8952 17.9657 50.0697 18.0612C50.2442 18.1549 50.3811 18.2835 50.4803 18.447C50.5814 18.6087 50.6365 18.7924 50.6457 18.9981H50.1607C50.1515 18.875 50.1166 18.7639 50.056 18.6647C49.9972 18.5655 49.9163 18.4865 49.8135 18.4277C49.7124 18.3671 49.5939 18.3368 49.458 18.3368C49.3018 18.3368 49.1705 18.368 49.0639 18.4305C48.9592 18.4911 48.8756 18.5738 48.8132 18.6785C48.7526 18.7813 48.7085 18.8962 48.6809 19.0229C48.6552 19.1478 48.6424 19.2755 48.6424 19.4059L48.6424 19.5217C48.6424 19.6521 48.6552 19.7807 48.681 19.9075C48.7067 20.0342 48.7499 20.149 48.8105 20.2519C48.8729 20.3548 48.9565 20.4375 49.0613 20.4999C49.1678 20.5605 49.3001 20.5909 49.4581 20.5909ZM51.0979 19.4969L51.0979 19.4335C51.0979 19.2186 51.1291 19.0192 51.1916 18.8355C51.254 18.65 51.3441 18.4893 51.4616 18.3533C51.5792 18.2155 51.7216 18.109 51.8887 18.0337C52.0559 17.9565 52.2433 17.9179 52.4509 17.9179C52.6603 17.9179 52.8486 17.9565 53.0158 18.0337C53.1848 18.109 53.3281 18.2155 53.4457 18.3533C53.5651 18.4893 53.656 18.65 53.7185 18.8355C53.7809 19.0192 53.8122 19.2186 53.8122 19.4335L53.8122 19.4969C53.8122 19.7118 53.781 19.9111 53.7185 20.0948C53.6561 20.2786 53.5651 20.4393 53.4457 20.5771C53.3282 20.713 53.1858 20.8196 53.0186 20.8967C52.8533 20.972 52.6659 21.0097 52.4565 21.0097C52.2471 21.0097 52.0588 20.972 51.8916 20.8967C51.7244 20.8196 51.5811 20.713 51.4617 20.5771C51.3441 20.4393 51.2541 20.2786 51.1916 20.0948C51.1292 19.9111 51.0979 19.7118 51.0979 19.4969ZM51.6077 19.4335L51.6077 19.4969C51.6077 19.6457 51.6252 19.7862 51.6601 19.9185C51.695 20.0489 51.7474 20.1647 51.8172 20.2657C51.8888 20.3667 51.9779 20.4466 52.0845 20.5054C52.191 20.5624 52.315 20.5909 52.4565 20.5909C52.5961 20.5909 52.7183 20.5624 52.823 20.5054C52.9295 20.4466 53.0177 20.3667 53.0875 20.2657C53.1573 20.1647 53.2097 20.0489 53.2446 19.9185C53.2813 19.7862 53.2997 19.6457 53.2996 19.4969L53.2996 19.4335C53.2996 19.2865 53.2813 19.1478 53.2445 19.0174C53.2096 18.8851 53.1563 18.7685 53.0847 18.6674C53.0149 18.5646 52.9267 18.4837 52.8201 18.425C52.7154 18.3662 52.5923 18.3368 52.4509 18.3368C52.3113 18.3368 52.1882 18.3662 52.0816 18.425C51.9769 18.4837 51.8888 18.5646 51.8171 18.6674C51.7473 18.7685 51.695 18.8851 51.6601 19.0174C51.6252 19.1478 51.6077 19.2865 51.6077 19.4335ZM54.9753 18.6096L54.9754 20.9546H54.4656L54.4655 17.973H54.9478L54.9753 18.6096ZM54.8541 19.3508L54.6419 19.3426C54.6438 19.1387 54.6741 18.9504 54.7329 18.7777C54.7916 18.6032 54.8743 18.4516 54.9809 18.323C55.0874 18.1944 55.2141 18.0952 55.3611 18.0254C55.5099 17.9537 55.6743 17.9179 55.8544 17.9179C56.0013 17.9179 56.1336 17.9381 56.2512 17.9785C56.3687 18.0171 56.4689 18.0796 56.5515 18.1659C56.636 18.2523 56.7003 18.3643 56.7444 18.5021C56.7885 18.6381 56.8106 18.8043 56.8106 19.0009L56.8107 20.9546H56.2981L56.298 18.9954C56.298 18.8392 56.2751 18.7143 56.2291 18.6206C56.1832 18.5251 56.1162 18.4562 56.028 18.4139C55.9398 18.3698 55.8314 18.3478 55.7028 18.3478C55.5761 18.3478 55.4603 18.3744 55.3556 18.4277C55.2527 18.481 55.1636 18.5545 55.0883 18.6482C55.0149 18.7418 54.957 18.8493 54.9147 18.9706C54.8743 19.09 54.8541 19.2167 54.8541 19.3508ZM58.5057 20.4944L59.3212 17.973H59.842L58.7702 20.9546H58.4285L58.5057 20.4944ZM57.8249 17.973L58.6655 20.5082L58.7234 20.9546H58.3817L57.3014 17.973H57.8249ZM61.5454 21.0097C61.3378 21.0097 61.1495 20.9748 60.9805 20.905C60.8134 20.8333 60.6691 20.7332 60.5479 20.6046C60.4285 20.476 60.3366 20.3236 60.2723 20.1472C60.208 19.9708 60.1759 19.778 60.1758 19.5685L60.1758 19.4528C60.1758 19.2103 60.2116 18.9944 60.2833 18.8052C60.3549 18.6142 60.4523 18.4525 60.5754 18.3202C60.6984 18.188 60.8381 18.0879 60.9942 18.0199C61.1504 17.9519 61.312 17.9179 61.4792 17.9179C61.6923 17.9179 61.876 17.9547 62.0303 18.0281C62.1865 18.1016 62.3141 18.2045 62.4133 18.3368C62.5126 18.4672 62.586 18.6215 62.6338 18.7997C62.6816 18.9761 62.7055 19.169 62.7055 19.3784L62.7055 19.6071H60.479L60.4789 19.191H62.1957L62.1957 19.1524C62.1883 19.0202 62.1608 18.8916 62.113 18.7666C62.0671 18.6417 61.9936 18.5389 61.8925 18.458C61.7915 18.3772 61.6537 18.3368 61.4792 18.3368C61.3635 18.3368 61.2569 18.3616 61.1596 18.4112C61.0622 18.4589 60.9786 18.5306 60.9088 18.6261C60.839 18.7216 60.7848 18.8383 60.7462 18.9761C60.7077 19.1139 60.6884 19.2728 60.6884 19.4528L60.6884 19.5685C60.6884 19.71 60.7077 19.8432 60.7463 19.9681C60.7867 20.0912 60.8446 20.1996 60.9199 20.2932C60.997 20.3869 61.0898 20.4604 61.1982 20.5137C61.3084 20.567 61.4334 20.5936 61.573 20.5936C61.753 20.5936 61.9055 20.5569 62.0304 20.4834C62.1553 20.4099 62.2646 20.3116 62.3583 20.1885L62.6669 20.4338C62.6026 20.5311 62.5209 20.6239 62.4217 20.7121C62.3225 20.8003 62.2003 20.8719 62.0552 20.927C61.9119 20.9821 61.742 21.0097 61.5454 21.0097ZM63.8245 18.4415L63.8246 20.9546H63.3148L63.3147 17.973H63.8107L63.8245 18.4415ZM64.7559 17.9565L64.7532 18.4305C64.7109 18.4213 64.6705 18.4158 64.6319 18.4139C64.5952 18.4103 64.5529 18.4084 64.5052 18.4084C64.3876 18.4084 64.2838 18.4268 64.1938 18.4635C64.1038 18.5003 64.0275 18.5517 63.9651 18.6178C63.9026 18.684 63.853 18.763 63.8163 18.8548C63.7814 18.9448 63.7584 19.044 63.7474 19.1524L63.6041 19.2351C63.6041 19.0551 63.6216 18.8861 63.6565 18.7281C63.6932 18.5701 63.7492 18.4305 63.8245 18.3092C63.8999 18.1861 63.9954 18.0906 64.1111 18.0226C64.2287 17.9528 64.3683 17.9179 64.53 17.9179C64.5667 17.9179 64.609 17.9225 64.6567 17.9317C64.7045 17.9391 64.7375 17.9473 64.7559 17.9565ZM66.9773 20.1637C66.9773 20.0903 66.9608 20.0223 66.9277 19.9598C66.8965 19.8955 66.8313 19.8377 66.7321 19.7862C66.6347 19.7329 66.4877 19.687 66.2912 19.6484C66.1258 19.6135 65.9761 19.5722 65.842 19.5244C65.7097 19.4767 65.5968 19.4188 65.5031 19.3508C65.4112 19.2829 65.3405 19.203 65.2909 19.1111C65.2413 19.0192 65.2165 18.9118 65.2165 18.7887C65.2165 18.6711 65.2422 18.56 65.2936 18.4553C65.3469 18.3506 65.4213 18.2578 65.5168 18.177C65.6142 18.0961 65.7308 18.0327 65.8668 17.9868C66.0027 17.9409 66.1543 17.9179 66.3214 17.9179C66.5602 17.9179 66.7642 17.9602 66.9332 18.0447C67.1022 18.1292 67.2317 18.2422 67.3217 18.3836C67.4117 18.5232 67.4568 18.6785 67.4568 18.8493H66.947C66.947 18.7666 66.9222 18.6867 66.8726 18.6096C66.8248 18.5306 66.7541 18.4654 66.6604 18.4139C66.5685 18.3625 66.4555 18.3368 66.3214 18.3368C66.18 18.3368 66.0652 18.3588 65.977 18.4029C65.8907 18.4452 65.8273 18.4994 65.7869 18.5655C65.7483 18.6316 65.729 18.7014 65.729 18.7749C65.729 18.83 65.7382 18.8796 65.7566 18.9237C65.7768 18.966 65.8117 19.0055 65.8613 19.0422C65.9109 19.0771 65.9807 19.1102 66.0707 19.1414C66.1607 19.1726 66.2755 19.2039 66.4152 19.2351C66.6595 19.2902 66.8607 19.3563 67.0186 19.4335C67.1766 19.5107 67.2942 19.6053 67.3714 19.7173C67.4485 19.8294 67.4871 19.9653 67.4871 20.1252C67.4871 20.2556 67.4596 20.375 67.4045 20.4834C67.3512 20.5918 67.2731 20.6855 67.1702 20.7645C67.0692 20.8416 66.948 20.9022 66.8065 20.9463C66.6669 20.9886 66.5098 21.0097 66.3353 21.0097C66.0726 21.0097 65.8503 20.9629 65.6685 20.8692C65.4866 20.7755 65.3488 20.6542 65.2551 20.5054C65.1614 20.3566 65.1146 20.1996 65.1145 20.0342H65.6271C65.6344 20.1738 65.6749 20.285 65.7483 20.3676C65.8218 20.4485 65.9118 20.5063 66.0184 20.5413C66.125 20.5743 66.2306 20.5909 66.3353 20.5909C66.4749 20.5909 66.5916 20.5725 66.6853 20.5357C66.7808 20.499 66.8533 20.4485 66.9029 20.3842C66.9525 20.3199 66.9773 20.2464 66.9773 20.1637ZM68.7246 17.973L68.7247 20.9546H68.2122L68.2121 17.973H68.7246ZM68.1735 17.1822C68.1735 17.0995 68.1983 17.0297 68.2479 16.9728C68.2993 16.9158 68.3746 16.8873 68.4738 16.8873C68.5712 16.8873 68.6456 16.9158 68.697 16.9728C68.7503 17.0297 68.777 17.0995 68.777 17.1822C68.777 17.2612 68.7503 17.3291 68.6971 17.3861C68.6456 17.4412 68.5712 17.4688 68.4739 17.4688C68.3747 17.4688 68.2993 17.4412 68.2479 17.3861C68.1983 17.3291 68.1735 17.2612 68.1735 17.1822ZM69.4222 19.4969L69.4222 19.4335C69.4222 19.2186 69.4534 19.0192 69.5158 18.8355C69.5783 18.65 69.6683 18.4893 69.7859 18.3533C69.9034 18.2155 70.0458 18.109 70.213 18.0337C70.3802 17.9565 70.5675 17.9179 70.7751 17.9179C70.9845 17.9179 71.1728 17.9565 71.34 18.0337C71.509 18.109 71.6523 18.2155 71.7699 18.3533C71.8893 18.4893 71.9803 18.65 72.0427 18.8355C72.1052 19.0192 72.1364 19.2186 72.1364 19.4335L72.1364 19.4969C72.1364 19.7118 72.1052 19.9111 72.0428 20.0948C71.9803 20.2786 71.8894 20.4393 71.77 20.5771C71.6524 20.713 71.51 20.8196 71.3429 20.8967C71.1775 20.972 70.9902 21.0097 70.7807 21.0097C70.5713 21.0097 70.383 20.972 70.2158 20.8967C70.0487 20.8196 69.9054 20.713 69.786 20.5771C69.6684 20.4393 69.5784 20.2786 69.5159 20.0948C69.4534 19.9111 69.4222 19.7118 69.4222 19.4969ZM69.932 19.4335L69.932 19.4969C69.932 19.6457 69.9494 19.7862 69.9843 19.9185C70.0192 20.0489 70.0716 20.1647 70.1414 20.2657C70.2131 20.3667 70.3022 20.4466 70.4087 20.5054C70.5153 20.5624 70.6393 20.5909 70.7807 20.5909C70.9203 20.5909 71.0425 20.5624 71.1472 20.5054C71.2538 20.4466 71.3419 20.3667 71.4117 20.2657C71.4816 20.1647 71.5339 20.0489 71.5688 19.9185C71.6055 19.7862 71.6239 19.6457 71.6239 19.4969L71.6239 19.4335C71.6239 19.2865 71.6055 19.1478 71.5688 19.0174C71.5339 18.8851 71.4806 18.7685 71.4089 18.6674C71.3391 18.5646 71.2509 18.4837 71.1444 18.425C71.0397 18.3662 70.9166 18.3368 70.7751 18.3368C70.6355 18.3368 70.5124 18.3662 70.4059 18.425C70.3012 18.4837 70.213 18.5646 70.1414 18.6674C70.0716 18.7685 70.0192 18.8851 69.9843 19.0174C69.9494 19.1478 69.932 19.2865 69.932 19.4335ZM73.2996 18.6096L73.2997 20.9546H72.7899L72.7898 17.973H73.272L73.2996 18.6096ZM73.1784 19.3508L72.9662 19.3426C72.968 19.1387 72.9983 18.9504 73.0571 18.7777C73.1159 18.6032 73.1986 18.4516 73.3051 18.323C73.4116 18.1944 73.5384 18.0952 73.6854 18.0254C73.8342 17.9537 73.9986 17.9179 74.1786 17.9179C74.3256 17.9179 74.4578 17.9381 74.5754 17.9785C74.693 18.0171 74.7931 18.0796 74.8758 18.1659C74.9603 18.2523 75.0246 18.3643 75.0687 18.5021C75.1128 18.6381 75.1348 18.8043 75.1348 19.0009L75.1349 20.9546H74.6224L74.6223 18.9954C74.6223 18.8392 74.5993 18.7143 74.5534 18.6206C74.5075 18.5251 74.4404 18.4562 74.3522 18.4139C74.2641 18.3698 74.1557 18.3478 74.0271 18.3478C73.9003 18.3478 73.7846 18.3744 73.6799 18.4277C73.577 18.481 73.4879 18.5545 73.4126 18.6482C73.3391 18.7418 73.2812 18.8493 73.239 18.9706C73.1986 19.09 73.1784 19.2167 73.1784 19.3508ZM77.847 18.4415L77.8471 20.9546H77.3373L77.3372 17.973H77.8332L77.847 18.4415ZM78.7784 17.9565L78.7756 18.4305C78.7334 18.4213 78.693 18.4158 78.6544 18.4139C78.6176 18.4103 78.5754 18.4084 78.5276 18.4084C78.41 18.4084 78.3062 18.4268 78.2162 18.4635C78.1262 18.5003 78.05 18.5517 77.9875 18.6178C77.9251 18.684 77.8755 18.763 77.8387 18.8548C77.8038 18.9448 77.7809 19.044 77.7699 19.1524L77.6266 19.2351C77.6266 19.0551 77.644 18.8861 77.6789 18.7281C77.7156 18.5701 77.7717 18.4305 77.847 18.3092C77.9223 18.1861 78.0178 18.0906 78.1336 18.0226C78.2511 17.9528 78.3907 17.9179 78.5524 17.9179C78.5891 17.9179 78.6314 17.9225 78.6792 17.9317C78.7269 17.9391 78.76 17.9473 78.7784 17.9565ZM80.9116 20.4448L80.9116 18.9099C80.9115 18.7924 80.8877 18.6904 80.8399 18.6041C80.794 18.5159 80.7242 18.4479 80.6305 18.4002C80.5368 18.3524 80.421 18.3285 80.2833 18.3285C80.1547 18.3285 80.0417 18.3506 79.9443 18.3946C79.8488 18.4387 79.7735 18.4966 79.7184 18.5682C79.6651 18.6399 79.6385 18.717 79.6385 18.7997H79.1287C79.1287 18.6932 79.1562 18.5875 79.2113 18.4828C79.2664 18.3781 79.3454 18.2835 79.4483 18.199C79.553 18.1127 79.6779 18.0447 79.8231 17.9951C79.97 17.9436 80.1335 17.9179 80.3136 17.9179C80.5303 17.9179 80.7214 17.9547 80.8867 18.0281C81.0539 18.1016 81.1843 18.2128 81.278 18.3616C81.3736 18.5085 81.4213 18.6932 81.4213 18.9155L81.4214 20.3043C81.4214 20.4035 81.4297 20.5091 81.4462 20.6212C81.4646 20.7332 81.4912 20.8297 81.5261 20.9105L81.5261 20.9546H80.9943C80.9686 20.8958 80.9484 20.8177 80.9337 20.7204C80.919 20.6212 80.9116 20.5293 80.9116 20.4448ZM80.9997 19.1469L81.0053 19.5051H80.49C80.3448 19.5051 80.2153 19.5171 80.1014 19.541C79.9875 19.563 79.892 19.597 79.8149 19.6429C79.7377 19.6889 79.6789 19.7467 79.6385 19.8165C79.5981 19.8845 79.5779 19.9644 79.5779 20.0563C79.5779 20.15 79.599 20.2354 79.6413 20.3125C79.6835 20.3897 79.7469 20.4512 79.8314 20.4972C79.9178 20.5413 80.0234 20.5633 80.1483 20.5633C80.3045 20.5633 80.4422 20.5302 80.5616 20.4641C80.6811 20.398 80.7757 20.3171 80.8455 20.2216C80.9171 20.1261 80.9557 20.0333 80.9612 19.9433L81.1789 20.1885C81.166 20.2657 81.1311 20.3511 81.0742 20.4448C81.0172 20.5385 80.941 20.6285 80.8455 20.7149C80.7518 20.7994 80.6397 20.8701 80.5093 20.927C80.3807 20.9821 80.2356 21.0097 80.0739 21.0097C79.8719 21.0097 79.6946 20.9702 79.5421 20.8912C79.3915 20.8122 79.2739 20.7066 79.1894 20.5743C79.1067 20.4402 79.0654 20.2905 79.0653 20.1252C79.0653 19.9653 79.0966 19.8248 79.159 19.7036C79.2215 19.5805 79.3115 19.4785 79.4291 19.3977C79.5466 19.315 79.6881 19.2526 79.8534 19.2103C80.0188 19.168 80.2034 19.1469 80.4073 19.1469H80.9997ZM83.4856 17.973L83.4856 18.3643H81.8736L81.8736 17.973H83.4856ZM82.4191 17.2483H82.9289L82.929 20.2161C82.929 20.3171 82.9446 20.3934 82.9759 20.4448C83.0071 20.4962 83.0475 20.5302 83.0971 20.5468C83.1467 20.5633 83.2 20.5716 83.257 20.5716C83.2992 20.5716 83.3433 20.5679 83.3892 20.5605C83.437 20.5514 83.4728 20.544 83.4967 20.5385L83.4995 20.9546C83.459 20.9674 83.4058 20.9794 83.3396 20.9904C83.2753 21.0033 83.1973 21.0097 83.1054 21.0097C82.9805 21.0097 82.8657 20.9849 82.761 20.9353C82.6562 20.8857 82.5727 20.803 82.5102 20.6873C82.4496 20.5697 82.4192 20.4117 82.4192 20.2133L82.4191 17.2483ZM85.335 21.0097C85.1274 21.0097 84.9391 20.9748 84.7701 20.905C84.6029 20.8333 84.4587 20.7332 84.3375 20.6046C84.2181 20.476 84.1262 20.3236 84.0619 20.1472C83.9976 19.9708 83.9654 19.778 83.9654 19.5685L83.9654 19.4528C83.9654 19.2103 84.0012 18.9944 84.0729 18.8052C84.1445 18.6142 84.2419 18.4525 84.3649 18.3202C84.488 18.188 84.6276 18.0879 84.7838 18.0199C84.9399 17.9519 85.1016 17.9179 85.2688 17.9179C85.4819 17.9179 85.6656 17.9547 85.8199 18.0281C85.976 18.1016 86.1037 18.2045 86.2029 18.3368C86.3021 18.4672 86.3756 18.6215 86.4234 18.7997C86.4712 18.9761 86.4951 19.169 86.4951 19.3784L86.4951 19.6071H84.2685L84.2685 19.191H85.9853L85.9853 19.1524C85.9779 19.0202 85.9504 18.8916 85.9026 18.7666C85.8567 18.6417 85.7832 18.5389 85.6821 18.458C85.5811 18.3772 85.4433 18.3368 85.2688 18.3368C85.153 18.3368 85.0465 18.3616 84.9491 18.4112C84.8518 18.4589 84.7682 18.5306 84.6984 18.6261C84.6286 18.7216 84.5744 18.8383 84.5358 18.9761C84.4972 19.1139 84.478 19.2728 84.478 19.4528L84.478 19.5685C84.478 19.71 84.4973 19.8432 84.5359 19.9681C84.5763 20.0912 84.6341 20.1996 84.7095 20.2932C84.7866 20.3869 84.8794 20.4604 84.9878 20.5137C85.098 20.567 85.2229 20.5936 85.3626 20.5936C85.5426 20.5936 85.6951 20.5569 85.82 20.4834C85.9449 20.4099 86.0542 20.3116 86.1479 20.1885L86.4565 20.4338C86.3922 20.5311 86.3105 20.6239 86.2113 20.7121C86.1121 20.8003 85.9899 20.8719 85.8448 20.927C85.7015 20.9821 85.5316 21.0097 85.335 21.0097ZM87.0824 20.6845C87.0824 20.5982 87.109 20.5256 87.1623 20.4668C87.2174 20.4062 87.2964 20.3759 87.3993 20.3759C87.5021 20.3759 87.5802 20.4062 87.6335 20.4668C87.6886 20.5256 87.7162 20.5982 87.7162 20.6845C87.7162 20.769 87.6886 20.8407 87.6335 20.8995C87.5802 20.9583 87.5022 20.9877 87.3993 20.9877C87.2964 20.9877 87.2174 20.9583 87.1623 20.8995C87.109 20.8407 87.0824 20.769 87.0824 20.6845ZM87.085 18.2514C87.085 18.165 87.1117 18.0924 87.165 18.0337C87.2201 17.973 87.2991 17.9427 87.4019 17.9427C87.5048 17.9427 87.5829 17.973 87.6362 18.0337C87.6913 18.0924 87.7188 18.165 87.7188 18.2514C87.7188 18.3359 87.6913 18.4075 87.6362 18.4663C87.5829 18.5251 87.5048 18.5545 87.402 18.5545C87.2991 18.5545 87.2201 18.5251 87.165 18.4663C87.1117 18.4075 87.085 18.3359 87.085 18.2514Z" fill="#919191"/>
<path d="M22.3009 36.2429L22.301 37.301H16.9221L16.922 36.3917L19.5342 33.5424C19.8208 33.2191 20.0468 32.9398 20.2121 32.7047C20.3774 32.4696 20.4931 32.2583 20.5593 32.0709C20.6291 31.8799 20.664 31.6943 20.664 31.5143C20.6639 31.2608 20.6162 31.0385 20.5206 30.8474C20.4288 30.6527 20.2928 30.5002 20.1128 30.39C19.9328 30.2761 19.7141 30.2192 19.457 30.2192C19.1594 30.2192 18.9095 30.2834 18.7074 30.412C18.5054 30.5406 18.3529 30.7188 18.25 30.9466C18.1472 31.1707 18.0957 31.4279 18.0957 31.7182H16.7676C16.7675 31.2516 16.8741 30.8254 17.0872 30.4396C17.3002 30.0501 17.6089 29.7415 18.013 29.5137C18.4171 29.2822 18.904 29.1665 19.4735 29.1665C20.0099 29.1665 20.4655 29.2565 20.8402 29.4366C21.215 29.6166 21.4998 29.8719 21.6945 30.2026C21.8929 30.5333 21.9921 30.9246 21.9921 31.3765C21.9922 31.6263 21.9517 31.8743 21.8709 32.1205C21.7901 32.3667 21.6744 32.6128 21.5237 32.859C21.3768 33.1015 21.2023 33.3458 21.0002 33.592C20.7981 33.8345 20.5759 34.0807 20.3334 34.3305L18.5974 36.2429H22.3009ZM23.6951 36.6397C23.6951 36.4339 23.7649 36.2612 23.9045 36.1216C24.0441 35.9783 24.2333 35.9067 24.4721 35.9067C24.7146 35.9067 24.9038 35.9783 25.0398 36.1216C25.1794 36.2612 25.2492 36.4339 25.2492 36.6397C25.2492 36.8454 25.1794 37.0181 25.0398 37.1577C24.9039 37.2974 24.7147 37.3672 24.4722 37.3672C24.2333 37.3672 24.0441 37.2974 23.9045 37.1577C23.7649 37.0181 23.6951 36.8454 23.6951 36.6397ZM30.556 29.2492L30.5563 37.301H29.2281L29.2279 30.8254L27.2604 31.4922L27.2604 30.3955L30.3962 29.2492H30.556ZM33.5154 31.2442L33.5154 30.8199C33.5153 30.5149 33.5815 30.2375 33.7137 29.9877C33.846 29.7378 34.0389 29.5376 34.2924 29.387C34.5459 29.2363 34.8508 29.161 35.2072 29.161C35.5746 29.161 35.8833 29.2363 36.1331 29.387C36.3866 29.5376 36.5795 29.7378 36.7118 29.9877C36.8441 30.2375 36.9102 30.5149 36.9102 30.8199L36.9103 31.2442C36.9103 31.5418 36.8441 31.8156 36.7119 32.0654C36.5833 32.3152 36.3923 32.5155 36.1387 32.6661C35.8889 32.8168 35.5821 32.8921 35.2184 32.8921C34.8583 32.8921 34.5497 32.8168 34.2925 32.6661C34.039 32.5155 33.8461 32.3152 33.7138 32.0654C33.5815 31.8156 33.5154 31.5418 33.5154 31.2442ZM34.4357 30.8199L34.4357 31.2442C34.4357 31.3912 34.4633 31.5308 34.5184 31.6631C34.5772 31.7954 34.6654 31.9019 34.783 31.9827C34.9005 32.0636 35.0457 32.104 35.2184 32.104C35.3947 32.104 35.538 32.0636 35.6482 31.9827C35.7621 31.9019 35.8466 31.7954 35.9017 31.6631C35.9568 31.5308 35.9844 31.3912 35.9844 31.2442L35.9844 30.8199C35.9844 30.6692 35.955 30.5278 35.8962 30.3955C35.8411 30.2596 35.7565 30.1512 35.6426 30.0703C35.5287 29.9895 35.3836 29.9491 35.2073 29.9491C35.0382 29.9491 34.895 29.9895 34.7774 30.0703C34.6635 30.1512 34.5772 30.2596 34.5184 30.3955C34.4633 30.5278 34.4357 30.6692 34.4357 30.8199ZM37.3844 35.7634L37.3844 35.3335C37.3844 35.0323 37.4505 34.7567 37.5827 34.5069C37.7187 34.257 37.9134 34.0568 38.1669 33.9061C38.4204 33.7555 38.7254 33.6802 39.0818 33.6802C39.4492 33.6802 39.7578 33.7555 40.0076 33.9061C40.2612 34.0568 40.4522 34.257 40.5808 34.5069C40.7131 34.7567 40.7792 35.0323 40.7793 35.3335L40.7793 35.7634C40.7793 36.0647 40.7132 36.3402 40.5809 36.5901C40.4523 36.8399 40.2631 37.0402 40.0133 37.1908C39.7634 37.3414 39.4585 37.4168 39.0984 37.4168C38.7347 37.4168 38.4242 37.3414 38.167 37.1908C37.9135 37.0402 37.7188 36.8399 37.5828 36.5901C37.4505 36.3402 37.3844 36.0647 37.3844 35.7634ZM38.3102 35.3335L38.3103 35.7634C38.3103 35.9104 38.3397 36.05 38.3985 36.1823C38.4609 36.3145 38.5509 36.4229 38.6685 36.5074C38.7861 36.5882 38.9275 36.6287 39.0929 36.6287C39.2803 36.6287 39.4309 36.5882 39.5448 36.5074C39.6587 36.4229 39.7395 36.3164 39.7873 36.1878C39.8387 36.0555 39.8644 35.914 39.8644 35.7634L39.8644 35.3335C39.8644 35.1829 39.835 35.0414 39.7762 34.9092C39.7211 34.7769 39.6347 34.6704 39.5172 34.5895C39.4033 34.5087 39.2581 34.4683 39.0818 34.4683C38.9091 34.4683 38.7658 34.5087 38.6519 34.5895C38.538 34.6704 38.4517 34.7769 38.3929 34.9092C38.3378 35.0414 38.3102 35.1829 38.3102 35.3335ZM39.4123 30.4231L35.4941 36.6948L34.8162 36.3035L38.7344 30.0318L39.4123 30.4231Z" fill="#001E41"/>
<path d="M11.8407 78.175L6.91203 71.1001L6.91248 83.8743H159.692L159.692 76.2098L154.763 67.1696L149.835 78.175L144.907 69.1348L139.979 74.2445L135.05 63.2391L130.122 78.175L125.193 71.1001L120.265 76.2098L115.336 65.2043L110.408 74.2445L105.48 69.1348L100.552 78.175L95.6228 67.1696L90.6948 76.2098L85.7655 51.4475L80.8379 74.2445L75.909 57.3433L70.9813 78.175L66.0527 71.1001L61.1237 54.5919L56.1959 71.1001L51.2671 60.4877L46.3389 65.2043L41.4109 76.2098L36.4823 71.1001L31.5542 78.175L26.6253 63.2391L21.6973 74.2445L16.7686 65.2043L11.8407 78.175Z" fill="url(#paint0_linear_1_233)"/>
<path d="M6.91113 71.3631L11.8418 78.4431L16.7718 65.4631L21.7026 74.5098L26.6326 63.4965L31.5636 78.4431L36.4938 71.3631L41.4244 76.4764L46.3544 65.4631L51.2847 60.7432L56.2155 71.3631L61.1454 54.8432L66.0764 71.3631L71.0071 78.4431L75.9368 57.5965L80.8678 74.5098L85.7974 51.6965L90.7287 76.4764L95.6589 67.4298L100.59 78.4431L105.52 69.3965L110.45 74.5098L115.381 65.4631L120.311 76.4764L125.242 71.3631L130.172 78.4431L135.102 63.4965L140.033 74.5098L144.963 69.3965L149.894 78.4431L154.824 67.4298L159.755 76.4764" stroke="#98CB56" stroke-width="0.940576" stroke-linecap="round"/>
</g>
</g>
<defs>
<filter id="filter0_d_1_233" x="-5.5625" y="-3.42839" width="177.726" height="102.269" filterUnits="userSpaceOnUse" color-interpolation-filters="sRGB">
<feFlood flood-opacity="0" result="BackgroundImageFix"/>
<feColorMatrix in="SourceAlpha" type="matrix" values="0 0 0 0 0 0 0 0 0 0 0 0 0 0 0 0 0 0 127 0" result="hardAlpha"/>
<feOffset dy="2.49437"/>
<feGaussianBlur stdDeviation="6.23592"/>
<feComposite in2="hardAlpha" operator="out"/>
<feColorMatrix type="matrix" values="0 0 0 0 0 0 0 0 0 0 0 0 0 0 0 0 0 0 0.08 0"/>
<feBlend mode="normal" in2="BackgroundImageFix" result="effect1_dropShadow_1_233"/>
<feBlend mode="normal" in="SourceGraphic" in2="effect1_dropShadow_1_233" result="shape"/>
</filter>
<linearGradient id="paint0_linear_1_233" x1="83.0866" y1="48.2946" x2="83.0866" y2="83.6475" gradientUnits="userSpaceOnUse">
<stop stop-color="#98CB56"/>
<stop offset="0.0001" stop-color="#98CB56" stop-opacity="0.46"/>
<stop offset="1" stop-color="#98CB56" stop-opacity="0.1"/>
</linearGradient>
<clipPath id="clip0_1_233">
<rect width="152.78" height="77.3254" rx="3.74155" transform="matrix(1 0 3.50255e-05 1 6.90933 6.54907)" fill="white"/>
</clipPath>
</defs>
</svg>
